<svg version="1.1" id="Layer_1" xmlns="http://www.w3.org/2000/svg" xmlns:xlink="http://www.w3.org/1999/xlink" x="0px" y="0px"
	 width="100%" viewBox="0 0 512 512" enable-background="new 0 0 512 512" xml:space="preserve">
<path fill="#0171BC" opacity="1.000000" stroke="none" 
	d="
M356.000000,513.000000 
	C237.362167,513.000000 119.224319,513.000000 1.043242,513.000000 
	C1.043242,342.403809 1.043242,171.807602 1.043242,1.105696 
	C171.554504,1.105696 342.109100,1.105696 512.831848,1.105696 
	C512.831848,171.666534 512.831848,342.333252 512.831848,513.000000 
	C460.807526,513.000000 408.653778,513.000000 356.000000,513.000000 
M310.752045,139.104782 
	C312.039001,139.169189 313.325958,139.233597 315.211975,139.744385 
	C324.373718,140.953629 333.535492,142.162888 342.697235,143.372131 
	C342.805054,142.557999 342.912842,141.743851 343.020660,140.929703 
	C335.005707,139.922638 326.990784,138.915573 318.293304,137.725571 
	C317.355988,137.690796 316.418701,137.656036 314.900604,137.170471 
	C312.624390,136.999313 310.348206,136.828171 307.301514,136.457947 
	C306.509369,136.419327 305.717255,136.380707 304.270691,135.925613 
	C301.858795,135.776230 299.446930,135.626862 296.229248,135.317581 
	C295.135956,135.294250 294.042694,135.270935 292.347931,134.879471 
	C291.190948,134.850861 290.033966,134.822266 288.261047,134.563309 
	C287.825623,134.564651 287.390198,134.566010 286.259369,134.260147 
	C285.509674,134.308853 284.759949,134.357544 283.157928,134.252090 
	C281.426086,134.229202 279.694214,134.206299 277.277893,133.840256 
	C275.467926,133.804047 273.657959,133.767822 270.966217,133.465240 
	C255.015350,133.534988 239.064468,133.604736 222.361511,133.419479 
	C220.592300,133.685226 218.823090,133.950989 216.186279,134.156677 
	C214.453476,134.256927 212.720657,134.357178 210.201675,134.251923 
	C208.158920,134.599503 206.116150,134.947098 203.245087,135.228760 
	C202.147079,135.348358 201.049088,135.467941 199.208984,135.367554 
	C197.509048,135.718292 195.809097,136.069046 193.369095,136.381165 
	C192.887421,136.482010 192.405746,136.582840 191.199142,136.470963 
	C189.317200,136.887985 187.435257,137.304993 184.909882,137.652664 
	C184.276093,137.765305 183.642319,137.877930 182.515442,137.791306 
	C181.532684,138.102310 180.549911,138.413315 178.745956,138.726730 
	C165.076538,142.190857 151.144409,144.862167 137.793091,149.286255 
	C111.042839,158.150192 87.228569,171.970459 68.644020,193.792374 
	C35.492096,232.719254 39.317856,289.103607 77.983047,320.998840 
	C113.102272,349.968964 153.468842,353.117706 196.938431,343.125671 
	C202.116577,341.954987 207.808014,342.120667 211.928909,338.197266 
	C211.781952,337.730286 211.634979,337.263306 211.488022,336.796326 
	C206.008133,338.283081 200.528244,339.769806 194.349472,341.233643 
	C193.897079,341.334991 193.444672,341.436340 192.531403,341.368042 
	C192.170120,341.359436 191.889938,341.505951 191.261520,341.918243 
	C191.261520,341.918243 191.033325,342.298370 190.655914,342.489471 
	C190.400726,342.617096 190.174118,342.783661 189.233246,342.956940 
	C183.849136,343.339661 178.466202,343.739960 173.080688,344.101929 
	C154.157196,345.373901 135.844421,342.787567 118.554993,334.775208 
	C82.889595,318.247009 63.346405,281.074341 69.967682,242.388657 
	C74.777138,214.288773 90.245682,192.810791 112.535500,175.958878 
	C139.803635,155.343201 171.365448,145.320068 204.677765,140.436966 
	C219.631348,138.244995 234.806778,137.566284 250.785919,136.435638 
	C254.866516,136.326447 258.947113,136.217239 263.844360,136.252899 
	C266.518707,136.275833 269.193085,136.298767 272.582611,136.623978 
	C273.093933,136.592636 273.605225,136.561295 275.025452,136.688553 
	C286.029510,137.374329 297.033569,138.060120 308.359833,139.022400 
	C308.905060,138.992004 309.450317,138.961594 310.752045,139.104782 
M74.981720,378.309845 
	C70.649330,378.236084 66.316940,378.162323 61.228600,377.788208 
	C43.552132,376.089935 25.875666,374.391693 8.199199,372.693420 
	C8.123567,373.478973 8.047935,374.264526 7.972302,375.050079 
	C26.015862,376.827087 44.059422,378.604095 62.980412,380.612427 
	C66.328583,380.704163 69.676758,380.795929 73.688690,381.219025 
	C75.173813,381.251495 76.658928,381.283936 79.035500,381.547913 
	C95.317734,381.453583 111.599976,381.359253 128.599457,381.492401 
	C130.050964,381.269318 131.502487,381.046234 133.854218,380.888306 
	C136.532990,380.716644 139.211746,380.544983 142.566605,380.590515 
	C143.693344,380.322754 144.820084,380.055023 146.761200,379.846802 
	C147.843124,379.754059 148.925049,379.661316 150.762939,379.764191 
	C152.483261,379.405853 154.203568,379.047485 156.627151,378.750732 
	C157.089798,378.674835 157.552444,378.598969 158.771317,378.724487 
	C160.483673,378.363861 162.196014,378.003265 164.646317,377.661377 
	C165.123245,377.546570 165.600174,377.431732 166.771210,377.521942 
	C168.347733,377.121796 169.924255,376.721649 171.937744,376.399048 
	C172.241867,376.400177 172.524536,376.322876 173.375244,376.350128 
	C174.711960,375.979187 176.048676,375.608215 178.197556,375.240021 
	C203.417221,370.636017 227.446594,362.643433 249.458191,349.334625 
	C263.062683,341.108948 275.297791,331.157043 285.713837,317.997650 
	C292.600616,317.893219 299.487366,317.788788 307.083252,317.871429 
	C307.318207,317.938965 307.553131,318.006470 308.378662,318.413330 
	C308.874359,318.465881 309.370270,318.565979 309.865753,318.564209 
	C365.845856,318.365601 421.825897,318.159485 477.805969,317.953033 
	C478.305847,317.951172 478.806610,317.915924 479.305359,317.935883 
	C482.540192,318.065216 482.482666,315.823639 482.587006,313.551605 
	C482.706268,310.954468 481.577850,310.079620 479.024078,310.083374 
	C450.868408,310.124939 422.712616,310.088318 393.715881,310.025818 
	C375.479523,310.002228 357.243103,309.933258 339.006866,309.972351 
	C328.412689,309.995056 317.818878,310.191223 306.667358,310.375671 
	C306.488708,310.431335 306.310028,310.487000 305.203369,310.318085 
	C294.769226,310.280457 284.306641,310.694580 273.911438,310.039276 
	C267.465271,309.632965 263.555145,311.757568 260.747986,318.009369 
	C256.638885,322.358185 252.769257,326.966858 248.380066,331.011749 
	C227.054169,350.664856 201.510681,362.468384 173.636688,368.932526 
	C156.371399,372.936462 138.638947,374.926056 120.510231,377.609039 
	C119.684387,377.775055 118.858536,377.941101 117.096481,378.048462 
	C112.101173,378.240265 107.105858,378.432098 101.186897,378.390228 
	C95.417770,378.517456 89.648636,378.644714 83.073044,378.591461 
	C81.421387,378.578949 79.769722,378.566406 77.390884,378.302856 
	C76.887009,378.366211 76.383141,378.429535 74.981720,378.309845 
M154.940567,171.604614 
	C149.621201,173.338669 143.361801,172.748474 139.543976,178.411087 
	C145.026733,176.923355 150.509506,175.435608 156.664719,173.952408 
	C157.103226,173.864090 157.541733,173.775757 158.507919,173.787781 
	C158.669052,173.709732 158.830185,173.631668 159.720612,173.544830 
	C161.151199,173.231552 162.581787,172.918274 164.773666,172.759995 
	C166.486649,172.394699 168.199615,172.029388 170.710175,171.721252 
	C171.499435,171.619370 172.288681,171.517487 173.977814,171.630646 
	C182.286133,171.556122 190.594452,171.481598 199.674911,171.621353 
	C200.474487,171.635437 201.274063,171.649506 202.709366,172.077911 
	C205.505661,172.503952 208.301971,172.930008 211.847794,173.680161 
	C230.590729,177.661407 246.719849,186.342834 259.887238,200.366333 
	C260.673706,201.203979 261.559326,202.575165 262.433685,202.602982 
	C268.579529,202.798645 274.734528,202.706741 281.878204,202.706741 
	C268.415741,188.103485 253.097198,178.752197 235.492325,173.279022 
	C209.132477,165.083984 182.486877,165.524551 154.940567,171.604614 
M260.811005,220.617920 
	C260.551605,221.386383 260.067200,222.154358 260.065552,222.923386 
	C260.016876,245.660706 259.987854,268.398254 260.083557,291.135223 
	C260.088867,292.396942 261.190399,293.654083 262.607452,294.893707 
	C265.886688,294.893707 269.165924,294.893707 273.078033,294.893707 
	C273.078033,276.339905 273.078033,258.245056 273.078033,239.282806 
	C283.462952,256.029358 293.684784,271.606537 302.882812,287.766449 
	C306.877167,294.784027 311.760406,296.160034 318.752289,294.478821 
	C318.752289,269.603424 318.752289,244.714096 318.752289,219.645447 
	C315.100677,219.645447 311.843597,219.645447 308.047913,219.645447 
	C308.047913,237.702316 308.047913,255.489700 308.047913,274.623718 
	C306.864929,272.747986 306.443756,272.090759 306.032867,271.427155 
	C295.962921,255.162399 285.928284,238.875473 275.763428,222.670258 
	C274.899872,221.293549 273.230255,219.645264 271.827179,219.538239 
	C268.407043,219.277344 264.923492,219.847977 260.811005,220.617920 
M457.256989,282.009399 
	C461.642151,268.280365 466.027313,254.551346 470.634094,240.128433 
	C468.111816,240.128433 466.269348,240.390137 464.530060,240.077637 
	C459.952301,239.255157 458.153107,241.367538 457.099213,245.609924 
	C454.614990,255.609818 451.700562,265.503357 448.904175,275.424133 
	C448.710205,276.112305 448.055420,276.670654 447.342773,277.671722 
	C443.860870,266.229767 440.408203,255.305252 437.262665,244.292999 
	C436.305542,240.942047 434.689331,239.869980 431.266479,240.021729 
	C428.057159,240.164001 425.295715,240.080612 424.811432,244.205673 
	C424.659393,245.500870 424.011902,246.736084 423.606567,248.003662 
	C420.329803,258.250000 417.056702,268.497498 413.554382,279.458527 
	C410.772247,268.863739 408.251495,259.057678 405.615204,249.282791 
	C402.938873,239.359482 402.888672,239.369797 392.702423,240.216003 
	C392.404327,240.240753 392.125458,240.497528 391.377136,240.883865 
	C391.925842,242.798859 392.479004,244.833984 393.091736,246.851028 
	C397.392059,261.007324 401.957336,275.090576 405.868134,289.353424 
	C407.136169,293.978149 409.077362,295.309875 413.681030,295.146393 
	C417.148956,295.023224 418.643188,293.941010 419.646820,290.777527 
	C423.104614,279.878174 426.799988,269.054199 430.652069,257.457214 
	C432.613373,263.525269 434.319763,268.722076 435.970947,273.936310 
	C437.675812,279.320221 439.540894,284.666840 440.926453,290.133575 
	C441.850677,293.780182 443.469452,295.132629 447.418671,295.144806 
	C451.573486,295.157654 453.900665,294.121216 454.689270,289.879608 
	C455.141693,287.446289 456.183502,285.122498 457.256989,282.009399 
M159.680466,221.589203 
	C155.588516,217.077850 146.123734,218.649368 144.248016,224.157837 
	C138.041611,242.384598 131.823929,260.607574 125.648010,278.844666 
	C123.903389,283.996429 122.286858,289.191589 120.414688,294.975037 
	C123.071053,294.975037 125.066818,294.745270 126.989601,295.022186 
	C131.173767,295.624847 133.263412,294.063171 134.264191,289.854370 
	C135.449341,284.870300 137.146576,279.964935 139.131592,275.239624 
	C139.752686,273.761139 141.965866,272.134399 143.550400,272.024933 
	C149.181076,271.635956 154.858932,271.997589 160.510757,271.817932 
	C163.257095,271.730621 164.728882,272.533173 165.561295,275.307587 
	C167.230194,280.870026 169.094711,286.392792 171.282303,291.767578 
	C171.845200,293.150604 173.799179,294.579346 175.308670,294.834045 
	C178.185898,295.319580 181.203232,294.974915 184.721817,294.974915 
	C176.344788,270.344788 168.174011,246.321106 159.680466,221.589203 
M379.828308,286.282806 
	C384.071747,280.748566 385.496674,274.296936 385.655975,267.532501 
	C385.973267,254.059860 378.729950,243.226059 367.519196,240.123718 
	C348.193573,234.775772 332.161224,247.193985 331.894531,267.717560 
	C331.735840,279.927643 337.945892,290.162323 347.951385,294.180603 
	C359.033417,298.631226 371.007507,295.832855 379.828308,286.282806 
M249.066650,250.485764 
	C254.009720,249.472992 250.821503,245.647369 251.449509,243.201965 
	C252.286285,239.943619 250.208588,238.243973 247.225647,239.135574 
	C242.646057,240.504456 238.264832,242.537048 233.739441,244.311508 
	C233.572235,243.625366 233.190536,242.059021 232.810455,240.499329 
	C229.425262,240.499329 226.207611,240.499329 223.209381,240.499329 
	C223.209381,258.762634 223.209381,276.644867 223.209381,294.644135 
	C227.333542,294.644135 230.882675,294.644135 234.887817,294.644135 
	C234.887817,284.364655 234.707870,274.411652 234.940720,264.468353 
	C235.154160,255.354172 239.765549,250.704025 249.066650,250.485764 
M205.099548,294.927917 
	C205.644943,293.394379 206.651230,291.864685 206.664032,290.326691 
	C206.784607,275.847076 206.735535,261.366028 206.735458,246.885391 
	C206.735458,244.780807 206.735474,242.676208 206.735474,240.421097 
	C202.487335,240.421097 198.915253,240.421097 195.090576,240.421097 
	C195.090576,258.648590 195.090576,276.573029 195.090576,294.976990 
	C198.255524,294.976990 201.221970,294.976990 205.099548,294.927917 
M200.543015,233.489014 
	C206.061310,232.286285 208.563553,229.518280 207.723312,225.310989 
	C206.981567,221.596939 204.573486,219.332504 200.800980,219.376648 
	C197.130920,219.419601 194.357117,221.417587 193.788544,225.223892 
	C193.114365,229.736969 195.374771,232.474976 200.543015,233.489014 
z"/>
<path fill="#F7FAFD" opacity="1.000000" stroke="none" 
	d="
M192.992279,341.537689 
	C193.444672,341.436340 193.897079,341.334991 194.824341,341.486877 
	C195.565521,342.212524 195.831848,342.684875 196.098160,343.157257 
	C153.468842,353.117706 113.102272,349.968964 77.983047,320.998840 
	C39.317856,289.103607 35.492096,232.719254 68.644020,193.792374 
	C87.228569,171.970459 111.042839,158.150192 137.793091,149.286255 
	C151.144409,144.862167 165.076538,142.190857 179.519836,138.813965 
	C181.198654,138.597672 182.103592,138.294113 183.008530,137.990555 
	C183.642319,137.877930 184.276093,137.765305 185.607056,137.785919 
	C188.177521,137.507339 190.050797,137.095505 191.924072,136.683685 
	C192.405746,136.582840 192.887421,136.482010 194.001007,136.569992 
	C196.405624,136.368408 198.178360,135.977982 199.951080,135.587555 
	C201.049088,135.467941 202.147079,135.348358 203.929657,135.452301 
	C206.738754,135.269684 208.863312,134.863541 210.987854,134.457413 
	C212.720657,134.357178 214.453476,134.256927 216.899109,134.383163 
	C219.445816,134.297928 221.279709,133.986221 223.113602,133.674500 
	C239.064468,133.604736 255.015350,133.534988 271.424988,133.858414 
	C271.878296,134.941620 271.872864,135.631653 271.867432,136.321686 
	C269.193085,136.298767 266.518707,136.275833 263.109955,135.933563 
	C258.210876,135.809784 254.046204,136.005341 249.881531,136.200897 
	C234.806778,137.566284 219.631348,138.244995 204.677765,140.436966 
	C171.365448,145.320068 139.803635,155.343201 112.535500,175.958878 
	C90.245682,192.810791 74.777138,214.288773 69.967682,242.388657 
	C63.346405,281.074341 82.889595,318.247009 118.554993,334.775208 
	C135.844421,342.787567 154.157196,345.373901 173.080688,344.101929 
	C178.466202,343.739960 183.849136,343.339661 189.839844,342.969574 
	C190.775925,342.869141 190.971558,342.641174 191.033325,342.298370 
	C191.033325,342.298370 191.261520,341.918243 191.708130,341.928070 
	C192.502487,341.947876 192.781662,341.814484 192.992279,341.537689 
z"/>
<path fill="#F5F9FC" opacity="1.000000" stroke="none" 
	d="
M261.465454,220.083801 
	C264.923492,219.847977 268.407043,219.277344 271.827179,219.538239 
	C273.230255,219.645264 274.899872,221.293549 275.763428,222.670258 
	C285.928284,238.875473 295.962921,255.162399 306.032867,271.427155 
	C306.443756,272.090759 306.864929,272.747986 308.047913,274.623718 
	C308.047913,255.489700 308.047913,237.702316 308.047913,219.645447 
	C311.843597,219.645447 315.100677,219.645447 318.752289,219.645447 
	C318.752289,244.714096 318.752289,269.603424 318.752289,294.478821 
	C311.760406,296.160034 306.877167,294.784027 302.882812,287.766449 
	C293.684784,271.606537 283.462952,256.029358 273.078033,239.282806 
	C273.078033,258.245056 273.078033,276.339905 273.078033,294.893707 
	C269.165924,294.893707 265.886688,294.893707 262.151947,294.437805 
	C261.619446,269.349213 261.542450,244.716507 261.465454,220.083801 
z"/>
<path fill="#F4F8FC" opacity="1.000000" stroke="none" 
	d="
M457.108490,282.379395 
	C456.183502,285.122498 455.141693,287.446289 454.689270,289.879608 
	C453.900665,294.121216 451.573486,295.157654 447.418671,295.144806 
	C443.469452,295.132629 441.850677,293.780182 440.926453,290.133575 
	C439.540894,284.666840 437.675812,279.320221 435.970947,273.936310 
	C434.319763,268.722076 432.613373,263.525269 430.652069,257.457214 
	C426.799988,269.054199 423.104614,279.878174 419.646820,290.777527 
	C418.643188,293.941010 417.148956,295.023224 413.681030,295.146393 
	C409.077362,295.309875 407.136169,293.978149 405.868134,289.353424 
	C401.957336,275.090576 397.392059,261.007324 393.091736,246.851028 
	C392.479004,244.833984 391.925842,242.798859 391.377136,240.883865 
	C392.125458,240.497528 392.404327,240.240753 392.702423,240.216003 
	C402.888672,239.369797 402.938873,239.359482 405.615204,249.282791 
	C408.251495,259.057678 410.772247,268.863739 413.554382,279.458527 
	C417.056702,268.497498 420.329803,258.250000 423.606567,248.003662 
	C424.011902,246.736084 424.659393,245.500870 424.811432,244.205673 
	C425.295715,240.080612 428.057159,240.164001 431.266479,240.021729 
	C434.689331,239.869980 436.305542,240.942047 437.262665,244.292999 
	C440.408203,255.305252 443.860870,266.229767 447.342773,277.671722 
	C448.055420,276.670654 448.710205,276.112305 448.904175,275.424133 
	C451.700562,265.503357 454.614990,255.609818 457.099213,245.609924 
	C458.153107,241.367538 459.952301,239.255157 464.530060,240.077637 
	C466.269348,240.390137 468.111816,240.128433 470.634094,240.128433 
	C466.027313,254.551346 461.642151,268.280365 457.108490,282.379395 
z"/>
<path fill="#F4F8FC" opacity="1.000000" stroke="none" 
	d="
M159.841858,221.943314 
	C168.174011,246.321106 176.344788,270.344788 184.721817,294.974915 
	C181.203232,294.974915 178.185898,295.319580 175.308670,294.834045 
	C173.799179,294.579346 171.845200,293.150604 171.282303,291.767578 
	C169.094711,286.392792 167.230194,280.870026 165.561295,275.307587 
	C164.728882,272.533173 163.257095,271.730621 160.510757,271.817932 
	C154.858932,271.997589 149.181076,271.635956 143.550400,272.024933 
	C141.965866,272.134399 139.752686,273.761139 139.131592,275.239624 
	C137.146576,279.964935 135.449341,284.870300 134.264191,289.854370 
	C133.263412,294.063171 131.173767,295.624847 126.989601,295.022186 
	C125.066818,294.745270 123.071053,294.975037 120.414688,294.975037 
	C122.286858,289.191589 123.903389,283.996429 125.648010,278.844666 
	C131.823929,260.607574 138.041611,242.384598 144.248016,224.157837 
	C146.123734,218.649368 155.588516,217.077850 159.841858,221.943314 
M158.013687,251.505081 
	C156.186127,246.057053 154.358566,240.609009 152.163284,234.064819 
	C148.911453,243.924622 145.969711,252.844208 142.864258,262.260193 
	C148.819443,262.260193 153.958862,262.272949 159.098038,262.243652 
	C159.721497,262.240082 160.343689,262.009918 161.465561,261.784485 
	C160.364273,258.472046 159.330063,255.361389 158.013687,251.505081 
z"/>
<path fill="#F6FAFC" opacity="1.000000" stroke="none" 
	d="
M127.882210,381.264923 
	C111.599976,381.359253 95.317734,381.453583 78.570160,381.155212 
	C78.109230,380.026276 78.113647,379.290100 78.118065,378.553894 
	C79.769722,378.566406 81.421387,378.578949 83.726616,378.946411 
	C90.290306,379.075531 96.200432,378.849731 102.110550,378.623932 
	C107.105858,378.432098 112.101173,378.240265 117.760422,378.250092 
	C119.321648,378.241119 120.218925,378.030487 121.116203,377.819885 
	C138.638947,374.926056 156.371399,372.936462 173.636688,368.932526 
	C201.510681,362.468384 227.054169,350.664856 248.380066,331.011749 
	C252.769257,326.966858 256.638885,322.358185 261.469482,317.913635 
	C269.712311,317.928925 277.233673,318.039917 284.755005,318.150909 
	C275.297791,331.157043 263.062683,341.108948 249.458191,349.334625 
	C227.446594,362.643433 203.417221,370.636017 177.396393,375.159912 
	C175.325394,375.442230 174.055573,375.804688 172.785751,376.167114 
	C172.524536,376.322876 172.241867,376.400177 171.365082,376.264008 
	C169.220642,376.524963 167.648880,376.920929 166.077103,377.316925 
	C165.600174,377.431732 165.123245,377.546570 164.022385,377.479797 
	C161.603989,377.706512 159.809525,378.114777 158.015076,378.523071 
	C157.552444,378.598969 157.089798,378.674835 156.022476,378.539856 
	C153.614197,378.742157 151.810593,379.155365 150.006973,379.568573 
	C148.925049,379.661316 147.843124,379.754059 146.120819,379.629822 
	C144.283798,379.733032 143.087158,380.053192 141.890518,380.373352 
	C139.211746,380.544983 136.532990,380.716644 133.146591,380.667053 
	C130.920044,380.718811 129.401123,380.991882 127.882210,381.264923 
z"/>
<path fill="#F6FAFC" opacity="1.000000" stroke="none" 
	d="
M379.601532,286.559875 
	C371.007507,295.832855 359.033417,298.631226 347.951385,294.180603 
	C337.945892,290.162323 331.735840,279.927643 331.894531,267.717560 
	C332.161224,247.193985 348.193573,234.775772 367.519196,240.123718 
	C378.729950,243.226059 385.973267,254.059860 385.655975,267.532501 
	C385.496674,274.296936 384.071747,280.748566 379.601532,286.559875 
M352.545105,285.253204 
	C361.012268,288.635712 368.013275,285.818207 371.597595,277.530304 
	C374.601410,270.584595 374.399017,263.630798 371.325256,256.777008 
	C369.125122,251.871262 365.379639,248.798080 359.921692,248.361694 
	C354.237396,247.907211 350.005646,250.548843 347.014008,255.239044 
	C341.989471,263.116272 342.299622,278.826477 352.545105,285.253204 
z"/>
<path fill="#EFF5FA" opacity="1.000000" stroke="none" 
	d="
M202.073639,171.663589 
	C201.274063,171.649506 200.474487,171.635437 198.962006,171.349976 
	C189.858719,171.190948 181.468338,171.303284 173.077942,171.415619 
	C172.288681,171.517487 171.499435,171.619370 170.053223,171.522278 
	C167.601624,171.750549 165.807007,172.177765 164.012375,172.604996 
	C162.581787,172.918274 161.151199,173.231552 159.240448,173.443573 
	C158.415070,173.262695 158.155060,173.377747 157.980240,173.687439 
	C157.541733,173.775757 157.103226,173.864090 156.295242,173.552475 
	C155.873749,172.622971 155.821747,172.093399 155.769730,171.563828 
	C182.486877,165.524551 209.132477,165.083984 235.492325,173.279022 
	C253.097198,178.752197 268.415741,188.103485 281.878204,202.706741 
	C274.734528,202.706741 268.579529,202.798645 262.433685,202.602982 
	C261.559326,202.575165 260.673706,201.203979 259.887238,200.366333 
	C246.719849,186.342834 230.590729,177.661407 211.281921,173.239532 
	C207.835251,172.420456 204.954437,172.042023 202.073639,171.663589 
z"/>
<path fill="#F2F7FB" opacity="1.000000" stroke="none" 
	d="
M248.643829,250.447952 
	C239.765549,250.704025 235.154160,255.354172 234.940720,264.468353 
	C234.707870,274.411652 234.887817,284.364655 234.887817,294.644135 
	C230.882675,294.644135 227.333542,294.644135 223.209381,294.644135 
	C223.209381,276.644867 223.209381,258.762634 223.209381,240.499329 
	C226.207611,240.499329 229.425262,240.499329 232.810455,240.499329 
	C233.190536,242.059021 233.572235,243.625366 233.739441,244.311508 
	C238.264832,242.537048 242.646057,240.504456 247.225647,239.135574 
	C250.208588,238.243973 252.286285,239.943619 251.449509,243.201965 
	C250.821503,245.647369 254.009720,249.472992 248.643829,250.447952 
z"/>
<path fill="#F0F6FB" opacity="1.000000" stroke="none" 
	d="
M204.643982,294.952454 
	C201.221970,294.976990 198.255524,294.976990 195.090576,294.976990 
	C195.090576,276.573029 195.090576,258.648590 195.090576,240.421097 
	C198.915253,240.421097 202.487335,240.421097 206.735474,240.421097 
	C206.735474,242.676208 206.735458,244.780807 206.735458,246.885391 
	C206.735535,261.366028 206.784607,275.847076 206.664032,290.326691 
	C206.651230,291.864685 205.644943,293.394379 204.643982,294.952454 
z"/>
<path fill="#8A4493" opacity="1.000000" stroke="none" 
	d="
M394.556854,310.072876 
	C422.712616,310.088318 450.868408,310.124939 479.024078,310.083374 
	C481.577850,310.079620 482.706268,310.954468 482.587006,313.551605 
	C482.482666,315.823639 482.540192,318.065216 479.305359,317.935883 
	C478.806610,317.915924 478.305847,317.951172 477.805969,317.953033 
	C421.825897,318.159485 365.845856,318.365601 309.865753,318.564209 
	C309.370270,318.565979 308.874359,318.465881 308.453491,318.127014 
	C322.513092,317.710327 336.497833,317.579956 350.891541,317.530457 
	C365.611084,317.530884 379.921722,317.450409 394.679291,317.439392 
	C409.322296,317.508820 423.518372,317.508820 438.015320,317.508820 
	C438.015320,315.228485 438.015320,313.610107 437.800018,311.610779 
	C435.781128,311.078186 433.978394,310.807220 432.173798,310.794128 
	C419.720062,310.703674 407.265930,310.667023 394.741425,310.481171 
	C394.670929,310.349304 394.556854,310.072876 394.556854,310.072876 
z"/>
<path fill="#05DF12" opacity="1.000000" stroke="none" 
	d="
M285.234436,318.074280 
	C277.233673,318.039917 269.712311,317.928925 261.761780,317.693542 
	C263.555145,311.757568 267.465271,309.632965 273.911438,310.039276 
	C284.306641,310.694580 294.769226,310.280457 305.725098,310.817902 
	C306.289246,313.439941 306.331696,315.562134 306.374146,317.684357 
	C299.487366,317.788788 292.600616,317.893219 285.234436,318.074280 
z"/>
<path fill="#E9E519" opacity="1.000000" stroke="none" 
	d="
M306.728699,317.777893 
	C306.331696,315.562134 306.289246,313.439941 306.189056,310.930206 
	C306.310028,310.487000 306.488708,310.431335 307.290100,310.512634 
	C322.029114,310.785278 336.145386,310.920959 350.291351,311.323944 
	C350.385681,311.758820 350.450317,311.926361 350.426666,312.473419 
	C350.386444,314.385132 350.434509,315.917358 350.482574,317.449585 
	C336.497833,317.579956 322.513092,317.710327 308.158203,317.957336 
	C307.553131,318.006470 307.318207,317.938965 306.728699,317.777893 
z"/>
<path fill="#C8DCED" opacity="1.000000" stroke="none" 
	d="
M62.102982,380.381104 
	C44.059422,378.604095 26.015862,376.827087 7.972302,375.050079 
	C8.047935,374.264526 8.123567,373.478973 8.199199,372.693420 
	C25.875666,374.391693 43.552132,376.089935 61.604614,378.225647 
	C62.021416,379.235748 62.062199,379.808411 62.102982,380.381104 
z"/>
<path fill="#EFF5FA" opacity="1.000000" stroke="none" 
	d="
M200.177994,233.457642 
	C195.374771,232.474976 193.114365,229.736969 193.788544,225.223892 
	C194.357117,221.417587 197.130920,219.419601 200.800980,219.376648 
	C204.573486,219.332504 206.981567,221.596939 207.723312,225.310989 
	C208.563553,229.518280 206.061310,232.286285 200.177994,233.457642 
z"/>
<path fill="#C8DCED" opacity="1.000000" stroke="none" 
	d="
M318.975861,137.908508 
	C326.990784,138.915573 335.005707,139.922638 343.020660,140.929703 
	C342.912842,141.743851 342.805054,142.557999 342.697235,143.372131 
	C333.535492,142.162888 324.373718,140.953629 315.295593,139.409882 
	C316.578064,138.686432 317.776978,138.297470 318.975861,137.908508 
z"/>
<path fill="#C1A261" opacity="1.000000" stroke="none" 
	d="
M350.261658,311.056641 
	C336.145386,310.920959 322.029114,310.785278 307.568848,310.479492 
	C317.818878,310.191223 328.412689,309.995056 339.006866,309.972351 
	C357.243103,309.933258 375.479523,310.002228 394.136353,310.049347 
	C394.556854,310.072876 394.670929,310.349304 394.516754,310.615356 
	C394.207611,310.964844 394.052673,311.048218 393.440857,311.077271 
	C378.743164,311.034149 364.502411,311.045410 350.261658,311.056641 
z"/>
<path fill="#F7FAFD" opacity="1.000000" stroke="none" 
	d="
M292.949402,135.247620 
	C294.042694,135.270935 295.135956,135.294250 296.924011,135.580200 
	C300.054230,136.009232 302.489685,136.175659 304.925110,136.342102 
	C305.717255,136.380707 306.509369,136.419327 307.876770,136.706573 
	C308.971924,137.299438 309.491791,137.643692 310.005646,137.994232 
	C309.999603,138.000534 309.990234,138.010513 309.723480,138.043579 
	C308.983704,138.299744 308.510651,138.522827 308.037628,138.745911 
	C297.033569,138.060120 286.029510,137.374329 274.685669,136.336517 
	C275.551392,135.384125 276.756897,134.783752 277.962372,134.183380 
	C279.694214,134.206299 281.426086,134.229202 283.784698,134.509460 
	C285.259247,134.700348 286.106995,134.633850 286.954773,134.567368 
	C287.390198,134.566010 287.825623,134.564651 288.732788,134.915878 
	C290.452789,135.261505 291.701111,135.254562 292.949402,135.247620 
z"/>
<path fill="#0061B6" opacity="1.000000" stroke="none" 
	d="
M261.138245,220.350861 
	C261.542450,244.716507 261.619446,269.349213 261.739075,294.447632 
	C261.190399,293.654083 260.088867,292.396942 260.083557,291.135223 
	C259.987854,268.398254 260.016876,245.660706 260.065552,222.923386 
	C260.067200,222.154358 260.551605,221.386383 261.138245,220.350861 
z"/>
<path fill="#C8DCED" opacity="1.000000" stroke="none" 
	d="
M155.355148,171.584229 
	C155.821747,172.093399 155.873749,172.622971 155.959015,173.550201 
	C150.509506,175.435608 145.026733,176.923355 139.543976,178.411087 
	C143.361801,172.748474 149.621201,173.338669 155.355148,171.584229 
z"/>
<path fill="#C8DCED" opacity="1.000000" stroke="none" 
	d="
M196.518295,343.141479 
	C195.831848,342.684875 195.565521,342.212524 195.173767,341.498352 
	C200.528244,339.769806 206.008133,338.283081 211.488022,336.796326 
	C211.634979,337.263306 211.781952,337.730286 211.928909,338.197266 
	C207.808014,342.120667 202.116577,341.954987 196.518295,343.141479 
z"/>
<path fill="#C8DCED" opacity="1.000000" stroke="none" 
	d="
M173.527878,171.523132 
	C181.468338,171.303284 189.858719,171.190948 198.575943,171.242859 
	C190.594452,171.481598 182.286133,171.556122 173.527878,171.523132 
z"/>
<path fill="#F6FAFC" opacity="1.000000" stroke="none" 
	d="
M62.541695,380.496765 
	C62.062199,379.808411 62.021416,379.235748 61.982590,378.375824 
	C66.316940,378.162323 70.649330,378.236084 75.329437,378.660126 
	C74.793083,379.636169 73.909004,380.261902 73.024933,380.887634 
	C69.676758,380.795929 66.328583,380.704163 62.541695,380.496765 
z"/>
<path fill="#C8DCED" opacity="1.000000" stroke="none" 
	d="
M101.648727,378.507080 
	C96.200432,378.849731 90.290306,379.075531 84.129852,379.036652 
	C89.648636,378.644714 95.417770,378.517456 101.648727,378.507080 
z"/>
<path fill="#C8DCED" opacity="1.000000" stroke="none" 
	d="
M250.333725,136.318268 
	C254.046204,136.005341 258.210876,135.809784 262.701630,135.861130 
	C258.947113,136.217239 254.866516,136.326447 250.333725,136.318268 
z"/>
<path fill="#C8DCED" opacity="1.000000" stroke="none" 
	d="
M277.620117,134.011810 
	C276.756897,134.783752 275.551392,135.384125 274.231232,136.257217 
	C273.605225,136.561295 273.093933,136.592636 272.225037,136.472839 
	C271.872864,135.631653 271.878296,134.941620 271.865845,133.991592 
	C273.657959,133.767822 275.467926,133.804047 277.620117,134.011810 
z"/>
<path fill="#C8DCED" opacity="1.000000" stroke="none" 
	d="
M202.391510,171.870758 
	C204.954437,172.042023 207.835251,172.420456 210.907166,173.077484 
	C208.301971,172.930008 205.505661,172.503952 202.391510,171.870758 
z"/>
<path fill="#C8DCED" opacity="1.000000" stroke="none" 
	d="
M73.356812,381.053345 
	C73.909004,380.261902 74.793083,379.636169 75.778214,378.751648 
	C76.383141,378.429535 76.887009,378.366211 77.754471,378.428375 
	C78.113647,379.290100 78.109230,380.026276 78.124435,381.039429 
	C76.658928,381.283936 75.173813,381.251495 73.356812,381.053345 
z"/>
<path fill="#C8DCED" opacity="1.000000" stroke="none" 
	d="
M222.737549,133.546997 
	C221.279709,133.986221 219.445816,134.297928 217.332901,134.413208 
	C218.823090,133.950989 220.592300,133.685226 222.737549,133.546997 
z"/>
<path fill="#C8DCED" opacity="1.000000" stroke="none" 
	d="
M304.597900,136.133850 
	C302.489685,136.175659 300.054230,136.009232 297.326904,135.660156 
	C299.446930,135.626862 301.858795,135.776230 304.597900,136.133850 
z"/>
<path fill="#C8DCED" opacity="1.000000" stroke="none" 
	d="
M310.011688,137.987946 
	C309.491791,137.643692 308.971924,137.299438 308.262024,136.806122 
	C310.348206,136.828171 312.624390,136.999313 314.745972,137.517426 
	C313.064789,137.905563 311.538239,137.946747 310.011688,137.987946 
z"/>
<path fill="#C8DCED" opacity="1.000000" stroke="none" 
	d="
M210.594757,134.354675 
	C208.863312,134.863541 206.738754,135.269684 204.343811,135.485260 
	C206.116150,134.947098 208.158920,134.599503 210.594757,134.354675 
z"/>
<path fill="#C8DCED" opacity="1.000000" stroke="none" 
	d="
M199.580032,135.477554 
	C198.178360,135.977982 196.405624,136.368408 194.371033,136.589294 
	C195.809097,136.069046 197.509048,135.718292 199.580032,135.477554 
z"/>
<path fill="#C8DCED" opacity="1.000000" stroke="none" 
	d="
M128.240829,381.378662 
	C129.401123,380.991882 130.920044,380.718811 132.696487,380.634460 
	C131.502487,381.046234 130.050964,381.269318 128.240829,381.378662 
z"/>
<path fill="#C8DCED" opacity="1.000000" stroke="none" 
	d="
M191.561615,136.577332 
	C190.050797,137.095505 188.177521,137.507339 185.928772,137.820587 
	C187.435257,137.304993 189.317200,136.887985 191.561615,136.577332 
z"/>
<path fill="#C8DCED" opacity="1.000000" stroke="none" 
	d="
M158.393188,378.623779 
	C159.809525,378.114777 161.603989,377.706512 163.653412,377.470459 
	C162.196014,378.003265 160.483673,378.363861 158.393188,378.623779 
z"/>
<path fill="#F7FAFD" opacity="1.000000" stroke="none" 
	d="
M310.005646,137.994232 
	C311.538239,137.946747 313.064789,137.905563 315.036377,137.742828 
	C316.418701,137.656036 317.355988,137.690796 318.634583,137.817047 
	C317.776978,138.297470 316.578064,138.686432 314.996033,139.186691 
	C313.325958,139.233597 312.039001,139.169189 310.372498,138.787811 
	C309.992920,138.470840 309.990234,138.010513 309.990234,138.010513 
	C309.990234,138.010513 309.999603,138.000534 310.005646,137.994232 
z"/>
<path fill="#C8DCED" opacity="1.000000" stroke="none" 
	d="
M150.384949,379.666382 
	C151.810593,379.155365 153.614197,378.742157 155.670837,378.509033 
	C154.203568,379.047485 152.483261,379.405853 150.384949,379.666382 
z"/>
<path fill="#C8DCED" opacity="1.000000" stroke="none" 
	d="
M164.393021,172.682495 
	C165.807007,172.177765 167.601624,171.750549 169.654419,171.493698 
	C168.199615,172.029388 166.486649,172.394699 164.393021,172.682495 
z"/>
<path fill="#C8DCED" opacity="1.000000" stroke="none" 
	d="
M166.424164,377.419434 
	C167.648880,376.920929 169.220642,376.524963 171.146606,376.225250 
	C169.924255,376.721649 168.347733,377.121796 166.424164,377.419434 
z"/>
<path fill="#C8DCED" opacity="1.000000" stroke="none" 
	d="
M292.648682,135.063538 
	C291.701111,135.254562 290.452789,135.261505 289.040741,135.031052 
	C290.033966,134.822266 291.190948,134.850861 292.648682,135.063538 
z"/>
<path fill="#C8DCED" opacity="1.000000" stroke="none" 
	d="
M142.228561,380.481934 
	C143.087158,380.053192 144.283798,379.733032 145.713623,379.600037 
	C144.820084,380.055023 143.693344,380.322754 142.228561,380.481934 
z"/>
<path fill="#C8DCED" opacity="1.000000" stroke="none" 
	d="
M173.080505,376.258606 
	C174.055573,375.804688 175.325394,375.442230 176.990311,375.158508 
	C176.048676,375.608215 174.711960,375.979187 173.080505,376.258606 
z"/>
<path fill="#C8DCED" opacity="1.000000" stroke="none" 
	d="
M182.761993,137.890930 
	C182.103592,138.294113 181.198654,138.597672 179.930435,138.812759 
	C180.549911,138.413315 181.532684,138.102310 182.761993,137.890930 
z"/>
<path fill="#C8DCED" opacity="1.000000" stroke="none" 
	d="
M120.813217,377.714447 
	C120.218925,378.030487 119.321648,378.241119 118.228531,378.279419 
	C118.858536,377.941101 119.684387,377.775055 120.813217,377.714447 
z"/>
<path fill="#C8DCED" opacity="1.000000" stroke="none" 
	d="
M309.723480,138.043579 
	C309.990234,138.010513 309.992920,138.470840 309.994232,138.701019 
	C309.450317,138.961594 308.905060,138.992004 308.198730,138.884155 
	C308.510651,138.522827 308.983704,138.299744 309.723480,138.043579 
z"/>
<path fill="#C8DCED" opacity="1.000000" stroke="none" 
	d="
M286.607056,134.413757 
	C286.106995,134.633850 285.259247,134.700348 284.210876,134.586533 
	C284.759949,134.357544 285.509674,134.308853 286.607056,134.413757 
z"/>
<path fill="#C8DCED" opacity="1.000000" stroke="none" 
	d="
M192.761841,341.452881 
	C192.781662,341.814484 192.502487,341.947876 191.922806,341.872742 
	C191.889938,341.505951 192.170120,341.359436 192.761841,341.452881 
z"/>
<path fill="#C8DCED" opacity="1.000000" stroke="none" 
	d="
M190.844620,342.393921 
	C190.971558,342.641174 190.775925,342.869141 190.211273,342.985657 
	C190.174118,342.783661 190.400726,342.617096 190.844620,342.393921 
z"/>
<path fill="#C8DCED" opacity="1.000000" stroke="none" 
	d="
M158.244080,173.737610 
	C158.155060,173.377747 158.415070,173.262695 158.875793,173.447968 
	C158.830185,173.631668 158.669052,173.709732 158.244080,173.737610 
z"/>
<path fill="#0774BD" opacity="1.000000" stroke="none" 
	d="
M158.154785,251.877914 
	C159.330063,255.361389 160.364273,258.472046 161.465561,261.784485 
	C160.343689,262.009918 159.721497,262.240082 159.098038,262.243652 
	C153.958862,262.272949 148.819443,262.260193 142.864258,262.260193 
	C145.969711,252.844208 148.911453,243.924622 152.163284,234.064819 
	C154.358566,240.609009 156.186127,246.057053 158.154785,251.877914 
z"/>
<path fill="#0774BD" opacity="1.000000" stroke="none" 
	d="
M352.219330,285.058350 
	C342.299622,278.826477 341.989471,263.116272 347.014008,255.239044 
	C350.005646,250.548843 354.237396,247.907211 359.921692,248.361694 
	C365.379639,248.798080 369.125122,251.871262 371.325256,256.777008 
	C374.399017,263.630798 374.601410,270.584595 371.597595,277.530304 
	C368.013275,285.818207 361.012268,288.635712 352.219330,285.058350 
z"/>
<path fill="#E0272C" opacity="1.000000" stroke="none" 
	d="
M438.015320,311.991730 
	C438.015320,313.610107 438.015320,315.228485 438.015320,317.508820 
	C423.518372,317.508820 409.322296,317.508820 394.635010,317.063049 
	C394.230957,315.081146 394.318115,313.545044 394.835449,312.008911 
	C409.515533,312.003204 423.765411,311.997467 438.015320,311.991730 
z"/>
<path fill="#EA7E25" opacity="1.000000" stroke="none" 
	d="
M394.405304,312.008911 
	C394.318115,313.545044 394.230957,315.081146 394.188049,316.993591 
	C379.921722,317.450409 365.611084,317.530884 350.891541,317.530457 
	C350.434509,315.917358 350.386444,314.385132 350.845398,312.447083 
	C365.577087,312.019043 379.801697,311.996826 394.121826,311.974823 
	C394.217346,311.975037 394.405304,312.008911 394.405304,312.008911 
z"/>
<path fill="#EF1D03" opacity="1.000000" stroke="none" 
	d="
M437.800018,311.610779 
	C423.765411,311.997467 409.515533,312.003204 394.835449,312.008911 
	C394.405304,312.008911 394.217346,311.975037 394.117798,311.759888 
	C394.018250,311.544769 393.897766,311.131622 393.897766,311.131622 
	C394.052673,311.048218 394.207611,310.964844 394.587250,310.747253 
	C407.265930,310.667023 419.720062,310.703674 432.173798,310.794128 
	C433.978394,310.807220 435.781128,311.078186 437.800018,311.610779 
z"/>
<path fill="#FA8000" opacity="1.000000" stroke="none" 
	d="
M393.440857,311.077271 
	C393.897766,311.131622 394.018250,311.544769 394.022278,311.759705 
	C379.801697,311.996826 365.577087,312.019043 350.933716,312.067627 
	C350.450317,311.926361 350.385681,311.758820 350.291351,311.323944 
	C364.502411,311.045410 378.743164,311.034149 393.440857,311.077271 
z"/>
</svg>